<svg height="512pt" viewBox="-74 0 511 512" width="512pt" xmlns="http://www.w3.org/2000/svg"><g fill="#c7c8ca"><path d="m86.394531 108.972656c2.476563-5.292968 5.261719-10.320312 8.378907-15h-21.4375c-5.683594 4.445313-10.859376 9.480469-15.441407 15zm0 0"/><path d="m81.214844 121.789062h-32.375c-2.84375 4.777344-5.308594 9.789063-7.332032 15h35.445313c1.171875-5.148437 2.59375-10.160156 4.261719-15zm0 0"/><path d="m231.328125 95.320312c1.511719 4.277344 2.875 8.851563 4.101563 13.652344h27.472656c-1.476563-2.726562-3.046875-5.359375-4.722656-7.875-1.695313-2.539062-3.464844-4.910156-5.296876-7.125h-22.050781c.164063.449219.332031.890625.496094 1.347656zm0 0"/><path d="m128.394531 108.972656c1.226563-4.800781 2.589844-9.375 4.101563-13.648437.160156-.460938.328125-.898438.496094-1.351563h-22.050782c-1.832031 2.21875-3.601562 4.585938-5.296875 7.125-1.675781 2.515625-3.246093 5.148438-4.722656 7.875zm0 0"/><path d="m95.039062 121.789062c-1.855468 4.796876-3.4375 9.8125-4.730468 15h32.960937c.632813-5.152343 1.402344-10.167968 2.304688-15zm0 0"/><path d="m175.410156 93.972656h-28.445312c-1.839844 4.371094-3.570313 9.390625-5.136719 15h33.582031zm0 0"/><path d="m268.785156 121.789062h-30.535156c.902344 4.832032 1.671875 9.847657 2.304688 15h32.960937c-1.292969-5.1875-2.875-10.203124-4.730469-15zm0 0"/><path d="m277.429688 108.972656h28.5c-4.582032-5.519531-9.757813-10.554687-15.441407-15h-21.4375c3.113281 4.679688 5.902344 9.707032 8.378907 15zm0 0"/><path d="m314.984375 121.789062h-32.375c1.667969 4.839844 3.089844 9.851563 4.257813 15h35.449218c-2.023437-5.210937-4.488281-10.222656-7.332031-15zm0 0"/><path d="m225.011719 121.789062h-36.601563v15h39.050782c-.671876-5.183593-1.492188-10.191406-2.449219-15zm0 0"/><path d="m219.070312 99.65625c-.703124-1.988281-1.433593-3.882812-2.191406-5.683594h-28.46875v15h33.570313c-.902344-3.238281-1.863281-6.363281-2.910157-9.316406zm0 0"/><path d="m175.410156 121.789062h-36.632812c-.9375 4.695313-1.757813 9.707032-2.4375 15h39.070312zm0 0"/><path d="m34.800781 403.027344h38.222657v15h-38.222657zm0 0"/><path d="m34.800781 430.84375h38.222657v15h-38.222657zm0 0"/><path d="m86.023438 403.027344h35.121093v15h-35.121093zm0 0"/><path d="m86.023438 430.84375h35.121093v15h-35.121093zm0 0"/><path d="m242.679688 403.027344h35.121093v15h-35.121093zm0 0"/><path d="m242.679688 430.84375h35.121093v15h-35.121093zm0 0"/><path d="m290.800781 403.027344h38.222657v15h-38.222657zm0 0"/><path d="m290.800781 430.84375h38.222657v15h-38.222657zm0 0"/></g><path d="m198.6875 30.75c2.066406-3.125 3.277344-6.855469 3.277344-10.871094 0-10.980468-8.980469-19.878906-20.054688-19.878906-11.074218 0-20.050781 8.898438-20.050781 19.878906 0 4.015625 1.210937 7.746094 3.277344 10.871094zm0 0" fill="#ffcb00"/><path d="m181.058594 30.75c-2.066406-3.121094-3.273438-6.855469-3.273438-10.871094 0-8.171875 4.980469-15.1875 12.089844-18.242187-2.441406-1.046875-5.132812-1.636719-7.964844-1.636719-11.074218 0-20.050781 8.898438-20.050781 19.878906 0 4.015625 1.210937 7.746094 3.277344 10.871094zm0 0" fill="#f39600"/><path d="m134.410156 59.945312h95.003906c.300782 0 .59375.011719.890626.015626v-24.113282c0-3.355468-2.746094-6.097656-6.101563-6.097656h-84.582031c-3.355469 0-6.101563 2.742188-6.101563 6.097656v24.113282c.296875-.003907.59375-.015626.890625-.015626zm0 0" fill="#e0aa68"/><path d="m134.410156 59.945312h36.519532v-24.097656c0-3.355468 2.746093-6.097656 6.101562-6.097656h-37.410156c-3.355469 0-6.101563 2.742188-6.101563 6.097656v24.113282c.296875-.003907.59375-.015626.890625-.015626zm0 0" fill="#b57a4e"/><path d="m290.800781 271.773438h38.222657v40.886718h-38.222657zm0 0" fill="#ff812c"/><path d="m277.800781 271.773438h-12.289062v35.734374c0 2.835938 2.320312 5.152344 5.15625 5.152344h7.132812zm0 0" fill="#ff812c"/><path d="m277.800781 271.773438h-12.289062v35.734374c0 2.835938 2.320312 5.152344 5.15625 5.152344h7.132812zm0 0" fill="#ff6700"/><path d="m297.421875 307.507812v-35.734374h-6.621094v40.886718h11.777344c-2.835937 0-5.15625-2.316406-5.15625-5.152344zm0 0" fill="#ff6700"/><path d="m290.800781 257.773438h38.222657v15h-38.222657zm0 0" fill="#f39600"/><path d="m277.800781 257.773438h-19.359375c-4.140625 0-7.5 3.355468-7.5 7.5 0 4.140624 3.359375 7.5 7.5 7.5h19.359375zm0 0" fill="#f39600"/><path d="m111.152344 294.976562c-3.277344 0-6.519532-.246093-9.710938-.699218v23.214844h15v-22.734376c-1.757812.132813-3.519531.21875-5.289062.21875zm0 0" fill="#9b5729"/><path d="m136.164062 290.316406c-.667968.257813-1.34375.476563-2.019531.710938v26.464844h9.84375v-30.753907c-2.511719 1.339844-5.121093 2.539063-7.824219 3.578125zm0 0" fill="#9b5729"/><path d="m86.023438 316.492188h35.121093v15h-35.121093zm0 0" fill="#c7c8ca"/><path d="m34.800781 316.492188h38.222657v15h-38.222657zm0 0" fill="#c7c8ca"/><path d="m134.144531 316.492188h41.265625v15h-41.265625zm0 0" fill="#c7c8ca"/><path d="m240.003906 201.886719-29.152344-13.949219c1.59375 4.203125 2.476563 8.753906 2.476563 13.507812 0 7.214844-2.039063 14.023438-5.597656 19.84375.59375.023438 1.257812-.113281 1.953125-.449218l30.324218-14.503906c2.554688-1.226563 2.554688-3.226563-.003906-4.449219zm0 0" fill="#f39600"/><path d="m135.855469 201.445312c0 3.609376.5 7.101563 1.410156 10.417969l-3.121094 1.199219v79.03125c.792969-.273438 1.589844-.542969 2.378907-.847656 17.929687-6.894532 31.445312-20.324219 38.886718-36.523438v-92.460937c-.105468 0-.210937-.007813-.320312-.007813-21.667969 0-39.234375 17.546875-39.234375 39.191406zm0 0" fill="#00a9ff"/><path d="m86.023438 231.566406v59.789063c11.011718 4.167969 23.074218 5.613281 35.121093 3.882812v-77.175781zm0 0" fill="#00a9ff"/><path d="m73.023438 236.566406-26.324219 10.121094c-1.574219.605469-2.355469 2.367188-1.753907 3.941406 5.65625 14.675782 15.710938 26.386719 28.078126 34.234375zm0 0" fill="#00a9ff"/><path d="m188.410156 164.574219v73.726562c15.113282-5.445312 25.917969-19.886719 25.917969-36.855469 0-16.972656-10.804687-31.421874-25.917969-36.871093zm0 0" fill="#00a9ff"/><path d="m86.023438 263.164062v28.191407c11.011718 4.167969 23.074218 5.613281 35.121093 3.882812v-12.386719c-13.265625-3.039062-25.527343-9.839843-35.121093-19.6875zm0 0" fill="#5884cc"/><path d="m151.917969 283.027344c-5.925781 1.292968-11.894531 1.777344-17.773438 1.542968v7.523438c.792969-.273438 1.589844-.542969 2.378907-.847656 5.578124-2.140625 10.722656-4.921875 15.394531-8.21875zm0 0" fill="#5884cc"/><path d="m73.023438 244.5625c-.824219-1.714844-1.597657-3.464844-2.292969-5.265625-.230469-.601563-.257813-1.226563-.117188-1.804687l-23.914062 9.195312c-1.574219.605469-2.355469 2.367188-1.753907 3.941406 5.65625 14.675782 15.710938 26.386719 28.078126 34.234375zm0 0" fill="#5884cc"/><path d="m98.148438 252.4375c-.515626.199219-.773438.777344-.574219 1.292969 3.785156 9.820312 13.566406 15.597656 23.570312 14.789062v-24.921875zm0 0" fill="#5884cc"/><path d="m140.9375 237.058594c-.199219-.515625-.777344-.773438-1.292969-.574219l-5.5 2.113281v24.605469c7.414063-6.195313 10.453125-16.644531 6.792969-26.144531zm0 0" fill="#5884cc"/><path d="m190.59375 187.960938c-.742188 0-1.476562.113281-2.183594.324218v14.347656c.707032.214844 1.441406.328126 2.183594.328126 1.976562 0 3.910156-.800782 5.308594-2.199219 1.390625-1.402344 2.191406-3.332031 2.191406-5.300781 0-1.980469-.800781-3.910157-2.191406-5.3125-1.398438-1.386719-3.332032-2.1875-5.308594-2.1875zm0 0" fill="#0d5184"/><path d="m35.800781 474.539062v-302.105468c0-44.710938 29.992188-82.554688 70.933594-94.53125-4.558594 4.421875-8.828125 9.574218-12.734375 15.425781-14.171875 21.238281-21.976562 49.332031-21.976562 79.105469v302.105468h15v-302.105468c0-26.84375 6.910156-51.980469 19.453124-70.78125 9.652344-14.460938 21.675782-23.660156 34.554688-26.640625-3.292969 5.042969-6.503906 11.574219-9.476562 19.976562-7.359376 20.800781-11.410157 48.308594-11.410157 77.445313v302.105468h15v-302.105468c0-60.121094 17.757813-98.484375 29.984375-98.484375h9.28125v400.589843h15v-400.59375h9.285156c6.210938 0 13.839844 10.226563 19.433594 26.046876 6.804688 19.234374 10.550782 44.960937 10.550782 72.441406v302.105468h15v-302.105468c0-29.136719-4.050782-56.644532-11.410157-77.445313-2.972656-8.402343-6.183593-14.933593-9.476562-19.976562 12.878906 2.980469 24.902343 12.183593 34.554687 26.640625 12.546875 18.800781 19.453125 43.9375 19.453125 70.78125v302.105468h15v-302.105468c0-29.773438-7.804687-57.867188-21.976562-79.105469-3.90625-5.851563-8.175781-11.003906-12.734375-15.425781 40.941406 11.976562 70.933594 49.820312 70.933594 94.53125v302.105468h15v-302.105468c0-62.574219-50.964844-113.484375-113.609376-113.484375h-95.003906c-62.644531 0-113.609375 50.910156-113.609375 113.484375v302.105468zm0 0" fill="#a7a9ac"/><path d="m363.324219 506.851562c0 2.832032-2.320313 5.148438-5.15625 5.148438h-352.511719c-2.835938 0-5.15625-2.316406-5.15625-5.148438v-28.160156c0-2.835937 2.320312-5.152344 5.15625-5.152344h352.511719c2.835937 0 5.15625 2.316407 5.15625 5.152344zm0 0" fill="#e0aa68"/><path d="m48.046875 506.851562v-28.160156c0-2.835937 2.320313-5.152344 5.15625-5.152344h-47.546875c-2.835938 0-5.15625 2.316407-5.15625 5.152344v28.15625c0 2.832032 2.320312 5.152344 5.15625 5.152344h47.546875c-2.835937 0-5.15625-2.316406-5.15625-5.148438zm0 0" fill="#b57a4e"/><path d="m.5 485.414062h362.824219v15h-362.824219zm0 0" fill="#f8d5ab"/><path d="m251.183594 370.21875c0 3.179688-2.605469 5.78125-5.785156 5.78125h-126.972657c-3.179687 0-5.785156-2.601562-5.785156-5.78125v-13.328125c0-3.179687 2.601563-5.78125 5.785156-5.78125h126.972657c3.183593 0 5.785156 2.601563 5.785156 5.78125zm0 0" fill="#e0aa68"/><path d="m148.371094 370.21875v-13.328125c0-3.179687 2.601562-5.78125 5.785156-5.78125h-35.730469c-3.179687 0-5.785156 2.601563-5.785156 5.78125v13.328125c0 3.179688 2.601563 5.78125 5.785156 5.78125h35.730469c-3.183594 0-5.785156-2.601562-5.785156-5.78125zm0 0" fill="#b57a4e"/><path d="m.5 485.414062h47.546875v15h-47.546875zm0 0" fill="#eac092"/></svg>