<svg id="Layer_3" height="512" viewBox="0 0 64 64" width="512" xmlns="http://www.w3.org/2000/svg" data-name="Layer 3"><rect fill="#f4c4a4" height="5" rx="2.5" width="10" x="19" y="26"/><path d="m35 29h-6.05a2.5 2.5 0 0 1 -2.45 2 2.5 2.5 0 0 1 2.5 2.5 2.5 2.5 0 0 1 -2.5 2.5 2.5 2.5 0 0 1 2.5 2.5 2.5 2.5 0 0 1 -2.5 2.5h-5a2.484 2.484 0 0 1 -1.2-.3l-1.548 1.548a6 6 0 0 0 -1.752 4.237v11.515a4 4 0 0 0 4 4h17a4 4 0 0 0 4-4v-16.929a5 5 0 0 0 -1.464-3.535l-4.072-4.072a5 5 0 0 1 -1.464-3.535z" fill="#c0dafc"/><path d="m34 17v-2l5-2v-4l-6-3h-16a2 2 0 0 0 -2 2v2a2 2 0 0 0 2 2h7l2 2v3z" fill="#5e87ca"/><path d="m19 12v-6h-2a2 2 0 0 0 -2 2v2a2 2 0 0 0 2 2z" fill="#3b5892"/><path d="m35 29h-6.05a2.5 2.5 0 0 0 .05-.5 2.5 2.5 0 0 0 -2.042-2.458l2.042-2.042h6z" fill="#3b5892"/><path d="m42 41h4.586a3.415 3.415 0 0 0 2.414-1 3.415 3.415 0 0 1 2.414-1h10.586v-18h-15.929a5 5 0 0 1 -3.535-1.464l-1.072-1.072a5 5 0 0 0 -3.535-1.464h-11.929l-4.964 4.964a3.535 3.535 0 0 0 -1.036 2.5 3.536 3.536 0 0 0 3.536 3.536 3.535 3.535 0 0 0 2.5-1.036l2.964-2.964h6v5.929a5 5 0 0 0 1.464 3.535l4.072 4.072a5 5 0 0 1 1.464 3.464z" fill="#fbe1ca"/><path d="m42 47v11a4 4 0 0 1 -4 4h-17a4 4 0 0 1 -4-4v-11z" fill="#78a0d4"/><path d="m21.036 22h-9.536a2.5 2.5 0 0 1 -2.5-2.5 2.5 2.5 0 0 1 2.5-2.5h14.5l-4.964 4.964z" fill="#fcd3b6"/><path d="m19 12v.838a19.5 19.5 0 0 1 -1 6.162l.358-.143a7.386 7.386 0 0 0 4.642-6.857" fill="#4c6cb5"/><rect fill="#fcd3b6" height="5" rx="2.5" width="10" x="19" y="31"/><rect fill="#fbe1ca" height="5" rx="2.5" width="10" x="19" y="36"/><g fill="#c0dafc"><path d="m8.5-.031h2v8.062h-2z" transform="matrix(.496 -.868 .868 .496 1.314 10.264)"/><path d="m5.469 13h8.062v2h-8.062z" transform="matrix(.868 -.496 .496 .868 -5.694 6.558)"/><path d="m2 8h10v2h-10z"/></g><path d="m27.707 55.707-1.414-1.414 3.535-3.536a3.969 3.969 0 0 0 1.172-2.828v-18.929h2v18.93a5.958 5.958 0 0 1 -1.758 4.243z" fill="#78a0d4"/><path d="m31 47v.929a3.969 3.969 0 0 1 -1.172 2.828l-3.535 3.536 1.414 1.414 3.535-3.535a5.958 5.958 0 0 0 1.758-4.243v-.929z" fill="#5e87ca"/><path d="m14 32a6 6 0 0 0 -6 6 6 6 0 0 0 -6-6 6 6 0 0 0 6-6 6 6 0 0 0 6 6z" fill="#fce797"/><path d="m55 8a6 6 0 0 0 -6 6 6 6 0 0 0 -6-6 6 6 0 0 0 6-6 6 6 0 0 0 6 6z" fill="#fce797"/></svg>