<?xml version="1.0" encoding="iso-8859-1"?>
<!-- Generator: Adobe Illustrator 19.0.0, SVG Export Plug-In . SVG Version: 6.00 Build 0)  -->
<svg version="1.1" id="Capa_1" xmlns="http://www.w3.org/2000/svg" xmlns:xlink="http://www.w3.org/1999/xlink" x="0px" y="0px"
	 viewBox="0 0 511.999 511.999" style="enable-background:new 0 0 511.999 511.999;" xml:space="preserve">
<path style="fill:#E29F33;" d="M366.199,28.164v107.763L145.796,85.528V28.164c0-11.355,9.206-20.561,20.551-20.561h179.301
	C357.003,7.603,366.199,16.809,366.199,28.164z"/>
<path style="fill:#FCD94E;" d="M366.199,28.164v95.942L197.503,85.528V28.164c0-11.355,9.206-20.561,20.551-20.561h127.594
	C357.003,7.603,366.199,16.809,366.199,28.164z"/>
<path style="fill:#DEDEDE;" d="M426.463,147.617v294.699c0,34.289-27.79,62.079-62.079,62.079H147.611
	c-34.279,0-62.079-27.79-62.079-62.079V147.617c0-34.289,27.8-62.089,62.079-62.089h216.774
	C398.673,85.528,426.463,113.328,426.463,147.617z"/>
<path style="fill:#F0F0F0;" d="M426.463,147.617v294.699c0,34.289-27.79,62.079-62.079,62.079H216.046
	c-34.289,0-62.079-27.79-62.079-62.079V147.617c0-34.289,27.79-62.089,62.079-62.089h148.338
	C398.673,85.528,426.463,113.328,426.463,147.617z"/>
<rect x="85.529" y="167.105" style="fill:#55B5E0;" width="340.931" height="258.068"/>
<rect x="85.529" y="167.105" style="fill:#188EB7;" width="68.436" height="258.068"/>
<polygon style="fill:#FCD94E;" points="248.242,202.692 310.424,202.692 262.597,284.051 312.072,284.051 223.017,389.598 
	244.456,307.139 199.927,307.139 "/>
<path d="M364.383,77.928H147.616c-38.426,0-69.688,31.261-69.688,69.688v166.736c0,4.199,3.405,7.604,7.604,7.604
	s7.604-3.405,7.604-7.604V174.714h281.602c4.199,0,7.604-3.405,7.604-7.604c0-4.199-3.405-7.604-7.604-7.604H93.136v-11.891
	c0-30.04,24.439-54.48,54.48-54.48h216.768c30.041,0,54.48,24.439,54.48,54.48v11.891h-18.778c-4.199,0-7.604,3.405-7.604,7.604
	c0,4.199,3.405,7.604,7.604,7.604h18.778v242.862H93.136v-77.878c0-4.199-3.405-7.604-7.604-7.604s-7.604,3.405-7.604,7.604v102.613
	c0,38.425,31.261,69.688,69.688,69.688h216.768c38.426,0,69.688-31.261,69.688-69.688V147.616
	C434.071,109.19,402.81,77.928,364.383,77.928z M364.383,496.792H147.616c-30.041,0-54.48-24.439-54.48-54.48v-9.528h325.728v9.528
	C418.863,472.353,394.424,496.792,364.383,496.792z"/>
<path d="M145.797,67.788c4.199,0,7.604-3.405,7.604-7.604V28.159c0-7.142,5.809-12.951,12.951-12.951h179.295
	c7.141,0,12.951,5.809,12.951,12.951v32.025c0,4.199,3.405,7.604,7.604,7.604c4.199,0,7.604-3.405,7.604-7.604V28.159
	C373.806,12.632,361.174,0,345.647,0H166.352c-15.526,0-28.159,12.632-28.159,28.159v32.025
	C138.193,64.383,141.597,67.788,145.797,67.788z"/>
<path d="M317.024,198.916c-1.355-2.367-3.873-3.827-6.6-3.827h-62.181c-2.964,0-5.657,1.722-6.901,4.411l-48.317,104.447
	c-1.089,2.354-0.902,5.102,0.495,7.288c1.397,2.186,3.812,3.508,6.407,3.508h34.696l-18.965,72.942
	c-0.893,3.437,0.711,7.034,3.865,8.667c1.109,0.574,2.306,0.852,3.492,0.852c2.185,0,4.33-0.942,5.816-2.701l89.056-105.547
	c1.908-2.261,2.331-5.424,1.084-8.108c-1.247-2.684-3.937-4.4-6.896-4.4h-36.185l41.091-69.901
	C318.361,204.195,318.378,201.283,317.024,198.916z M256.042,280.197c-1.382,2.351-1.399,5.262-0.045,7.629
	c1.355,2.367,3.873,3.827,6.6,3.827h33.111l-56.903,67.441l13.011-50.043c0.592-2.278,0.096-4.702-1.344-6.565
	c-1.441-1.862-3.661-2.952-6.015-2.952h-32.634l41.281-89.239h44.03L256.042,280.197z"/>
<g>
</g>
<g>
</g>
<g>
</g>
<g>
</g>
<g>
</g>
<g>
</g>
<g>
</g>
<g>
</g>
<g>
</g>
<g>
</g>
<g>
</g>
<g>
</g>
<g>
</g>
<g>
</g>
<g>
</g>
</svg>
